<mxfile host="app.diagrams.net" agent="Mozilla/5.0 (Windows NT 10.0; Win64; x64) AppleWebKit/537.36 (KHTML, like Gecko) Chrome/133.0.0.0 Safari/537.36" version="26.0.11">
  <diagram name="Page-1" id="LWBwI8ScnncNo1WxZ8MY">
    <mxGraphModel dx="2790" dy="1232" grid="1" gridSize="10" guides="1" tooltips="1" connect="1" arrows="1" fold="1" page="1" pageScale="1" pageWidth="850" pageHeight="1100" math="0" shadow="0">
      <root>
        <mxCell id="0" />
        <mxCell id="1" parent="0" />
        <mxCell id="nWeCvu2n60bJMO3mKfKt-1" value="User" style="swimlane;whiteSpace=wrap;html=1;" parent="1" vertex="1">
          <mxGeometry x="130" y="520" width="390" height="1110" as="geometry">
            <mxRectangle x="140" y="520" width="140" height="30" as="alternateBounds" />
          </mxGeometry>
        </mxCell>
        <mxCell id="tFtRwitO-CaLWMYE0mu--2" style="edgeStyle=orthogonalEdgeStyle;rounded=0;orthogonalLoop=1;jettySize=auto;html=1;" edge="1" parent="nWeCvu2n60bJMO3mKfKt-1" source="nWeCvu2n60bJMO3mKfKt-4" target="tFtRwitO-CaLWMYE0mu--1">
          <mxGeometry relative="1" as="geometry" />
        </mxCell>
        <mxCell id="nWeCvu2n60bJMO3mKfKt-4" value="Start" style="ellipse;whiteSpace=wrap;html=1;" parent="nWeCvu2n60bJMO3mKfKt-1" vertex="1">
          <mxGeometry x="75" y="50" width="115" height="50" as="geometry" />
        </mxCell>
        <mxCell id="q5prHMVFRJjdFCk8cDmZ-4" style="edgeStyle=orthogonalEdgeStyle;rounded=0;orthogonalLoop=1;jettySize=auto;html=1;entryX=0.5;entryY=0;entryDx=0;entryDy=0;" parent="nWeCvu2n60bJMO3mKfKt-1" source="nWeCvu2n60bJMO3mKfKt-13" target="q5prHMVFRJjdFCk8cDmZ-3" edge="1">
          <mxGeometry relative="1" as="geometry" />
        </mxCell>
        <mxCell id="nWeCvu2n60bJMO3mKfKt-13" value="Halaman Keranjang Belanja" style="rounded=0;whiteSpace=wrap;html=1;" parent="nWeCvu2n60bJMO3mKfKt-1" vertex="1">
          <mxGeometry x="72.5" y="210" width="120" height="40" as="geometry" />
        </mxCell>
        <mxCell id="nWeCvu2n60bJMO3mKfKt-164" value="End" style="ellipse;whiteSpace=wrap;html=1;" parent="nWeCvu2n60bJMO3mKfKt-1" vertex="1">
          <mxGeometry x="138.75" y="1040" width="112.5" height="40" as="geometry" />
        </mxCell>
        <mxCell id="tFtRwitO-CaLWMYE0mu--21" style="edgeStyle=orthogonalEdgeStyle;rounded=0;orthogonalLoop=1;jettySize=auto;html=1;entryX=0;entryY=0.5;entryDx=0;entryDy=0;" edge="1" parent="nWeCvu2n60bJMO3mKfKt-1" source="q5prHMVFRJjdFCk8cDmZ-3" target="tFtRwitO-CaLWMYE0mu--20">
          <mxGeometry relative="1" as="geometry">
            <Array as="points">
              <mxPoint x="130" y="745" />
            </Array>
          </mxGeometry>
        </mxCell>
        <mxCell id="q5prHMVFRJjdFCk8cDmZ-3" value="" style="rhombus;whiteSpace=wrap;html=1;" parent="nWeCvu2n60bJMO3mKfKt-1" vertex="1">
          <mxGeometry x="112.5" y="350" width="40" height="40" as="geometry" />
        </mxCell>
        <mxCell id="tFtRwitO-CaLWMYE0mu--3" style="edgeStyle=orthogonalEdgeStyle;rounded=0;orthogonalLoop=1;jettySize=auto;html=1;entryX=0.5;entryY=0;entryDx=0;entryDy=0;" edge="1" parent="nWeCvu2n60bJMO3mKfKt-1" source="tFtRwitO-CaLWMYE0mu--1" target="nWeCvu2n60bJMO3mKfKt-13">
          <mxGeometry relative="1" as="geometry" />
        </mxCell>
        <mxCell id="tFtRwitO-CaLWMYE0mu--1" value="" style="rhombus;whiteSpace=wrap;html=1;" vertex="1" parent="nWeCvu2n60bJMO3mKfKt-1">
          <mxGeometry x="112.5" y="130" width="40" height="40" as="geometry" />
        </mxCell>
        <mxCell id="tFtRwitO-CaLWMYE0mu--20" value="Menekan Button Checkout" style="rounded=0;whiteSpace=wrap;html=1;" vertex="1" parent="nWeCvu2n60bJMO3mKfKt-1">
          <mxGeometry x="210" y="720" width="123" height="50" as="geometry" />
        </mxCell>
        <mxCell id="q5prHMVFRJjdFCk8cDmZ-16" value="Memilih Produk yang diinginkan&amp;nbsp;" style="rounded=0;whiteSpace=wrap;html=1;" parent="nWeCvu2n60bJMO3mKfKt-1" vertex="1">
          <mxGeometry x="220" y="345" width="123" height="50" as="geometry" />
        </mxCell>
        <mxCell id="q5prHMVFRJjdFCk8cDmZ-18" style="edgeStyle=orthogonalEdgeStyle;rounded=0;orthogonalLoop=1;jettySize=auto;html=1;entryX=0;entryY=0.5;entryDx=0;entryDy=0;" parent="nWeCvu2n60bJMO3mKfKt-1" source="q5prHMVFRJjdFCk8cDmZ-3" target="q5prHMVFRJjdFCk8cDmZ-16" edge="1">
          <mxGeometry relative="1" as="geometry">
            <Array as="points">
              <mxPoint x="220" y="370" />
            </Array>
          </mxGeometry>
        </mxCell>
        <mxCell id="tFtRwitO-CaLWMYE0mu--24" value="&lt;span style=&quot;font-family: Calibri, sans-serif;&quot; lang=&quot;SV&quot;&gt;&lt;font style=&quot;font-size: 12px;&quot;&gt;Mengisi data transaksi dan menekan &lt;i style=&quot;&quot;&gt;button&lt;b&gt; &lt;/b&gt;&lt;/i&gt;pesan&lt;br&gt;sekarang&lt;/font&gt;&lt;/span&gt;" style="rounded=0;whiteSpace=wrap;html=1;" vertex="1" parent="nWeCvu2n60bJMO3mKfKt-1">
          <mxGeometry x="210" y="810" width="150" height="60" as="geometry" />
        </mxCell>
        <mxCell id="nWeCvu2n60bJMO3mKfKt-3" value="Sistem" style="swimlane;whiteSpace=wrap;html=1;" parent="1" vertex="1">
          <mxGeometry x="520" y="520" width="310" height="1110" as="geometry" />
        </mxCell>
        <mxCell id="q5prHMVFRJjdFCk8cDmZ-1" value="Memilih jumlah produk dan menekan icon keranjang" style="rounded=0;whiteSpace=wrap;html=1;" parent="nWeCvu2n60bJMO3mKfKt-3" vertex="1">
          <mxGeometry x="-166.5" y="432.5" width="123" height="50" as="geometry" />
        </mxCell>
        <mxCell id="tFtRwitO-CaLWMYE0mu--4" style="edgeStyle=orthogonalEdgeStyle;rounded=0;orthogonalLoop=1;jettySize=auto;html=1;entryX=1;entryY=0.5;entryDx=0;entryDy=0;" edge="1" parent="nWeCvu2n60bJMO3mKfKt-3" source="q5prHMVFRJjdFCk8cDmZ-19" target="q5prHMVFRJjdFCk8cDmZ-1">
          <mxGeometry relative="1" as="geometry">
            <Array as="points">
              <mxPoint x="210" y="365" />
              <mxPoint x="210" y="458" />
            </Array>
          </mxGeometry>
        </mxCell>
        <mxCell id="q5prHMVFRJjdFCk8cDmZ-19" value="Sistem menampilkan Katalog Produk" style="rounded=0;whiteSpace=wrap;html=1;" parent="nWeCvu2n60bJMO3mKfKt-3" vertex="1">
          <mxGeometry x="59.5" y="347.5" width="130" height="45" as="geometry" />
        </mxCell>
        <mxCell id="tFtRwitO-CaLWMYE0mu--11" style="edgeStyle=orthogonalEdgeStyle;rounded=0;orthogonalLoop=1;jettySize=auto;html=1;entryX=0.5;entryY=0;entryDx=0;entryDy=0;" edge="1" parent="nWeCvu2n60bJMO3mKfKt-3" source="tFtRwitO-CaLWMYE0mu--7" target="tFtRwitO-CaLWMYE0mu--8">
          <mxGeometry relative="1" as="geometry" />
        </mxCell>
        <mxCell id="tFtRwitO-CaLWMYE0mu--13" style="edgeStyle=orthogonalEdgeStyle;rounded=0;orthogonalLoop=1;jettySize=auto;html=1;entryX=0;entryY=0.5;entryDx=0;entryDy=0;" edge="1" parent="nWeCvu2n60bJMO3mKfKt-3" source="tFtRwitO-CaLWMYE0mu--7" target="tFtRwitO-CaLWMYE0mu--9">
          <mxGeometry relative="1" as="geometry">
            <Array as="points">
              <mxPoint x="100" y="665" />
            </Array>
          </mxGeometry>
        </mxCell>
        <mxCell id="tFtRwitO-CaLWMYE0mu--7" value="&lt;font style=&quot;font-size: 10px;&quot;&gt;Validasi :&amp;nbsp;&lt;/font&gt;&lt;div&gt;&lt;span style=&quot;font-size: 10px;&quot;&gt;stok produk tersedia atau tidak&lt;/span&gt;&lt;/div&gt;" style="rhombus;whiteSpace=wrap;html=1;" vertex="1" parent="nWeCvu2n60bJMO3mKfKt-3">
          <mxGeometry x="30" y="507.5" width="110" height="95" as="geometry" />
        </mxCell>
        <mxCell id="tFtRwitO-CaLWMYE0mu--18" style="edgeStyle=orthogonalEdgeStyle;rounded=0;orthogonalLoop=1;jettySize=auto;html=1;entryX=0.5;entryY=0;entryDx=0;entryDy=0;" edge="1" parent="nWeCvu2n60bJMO3mKfKt-3" source="tFtRwitO-CaLWMYE0mu--8" target="q5prHMVFRJjdFCk8cDmZ-19">
          <mxGeometry relative="1" as="geometry">
            <Array as="points">
              <mxPoint x="280" y="616" />
              <mxPoint x="280" y="323" />
              <mxPoint x="125" y="323" />
            </Array>
          </mxGeometry>
        </mxCell>
        <mxCell id="tFtRwitO-CaLWMYE0mu--8" value="&lt;font style=&quot;font-size: 11px;&quot;&gt;Menampilkan pesan berhasil&lt;/font&gt;" style="rounded=0;whiteSpace=wrap;html=1;" vertex="1" parent="nWeCvu2n60bJMO3mKfKt-3">
          <mxGeometry x="155" y="602.5" width="105" height="27.5" as="geometry" />
        </mxCell>
        <mxCell id="tFtRwitO-CaLWMYE0mu--19" style="edgeStyle=orthogonalEdgeStyle;rounded=0;orthogonalLoop=1;jettySize=auto;html=1;entryX=0.5;entryY=0;entryDx=0;entryDy=0;" edge="1" parent="nWeCvu2n60bJMO3mKfKt-3" source="tFtRwitO-CaLWMYE0mu--9" target="q5prHMVFRJjdFCk8cDmZ-19">
          <mxGeometry relative="1" as="geometry">
            <Array as="points">
              <mxPoint x="280" y="665" />
              <mxPoint x="280" y="323" />
              <mxPoint x="125" y="323" />
            </Array>
          </mxGeometry>
        </mxCell>
        <mxCell id="tFtRwitO-CaLWMYE0mu--9" value="&lt;font style=&quot;font-size: 11px;&quot;&gt;Menampilkan pesan stok kosong&lt;/font&gt;" style="rounded=0;whiteSpace=wrap;html=1;" vertex="1" parent="nWeCvu2n60bJMO3mKfKt-3">
          <mxGeometry x="155" y="650" width="105" height="30" as="geometry" />
        </mxCell>
        <mxCell id="tFtRwitO-CaLWMYE0mu--10" style="edgeStyle=orthogonalEdgeStyle;rounded=0;orthogonalLoop=1;jettySize=auto;html=1;entryX=0.021;entryY=0.582;entryDx=0;entryDy=0;entryPerimeter=0;" edge="1" parent="nWeCvu2n60bJMO3mKfKt-3" source="q5prHMVFRJjdFCk8cDmZ-1" target="tFtRwitO-CaLWMYE0mu--7">
          <mxGeometry relative="1" as="geometry">
            <Array as="points">
              <mxPoint x="-105" y="563" />
            </Array>
          </mxGeometry>
        </mxCell>
        <mxCell id="tFtRwitO-CaLWMYE0mu--22" value="&lt;font style=&quot;font-size: 12px;&quot;&gt;Menampilkan Halaman Proses Transaksi&lt;/font&gt;" style="rounded=0;whiteSpace=wrap;html=1;" vertex="1" parent="nWeCvu2n60bJMO3mKfKt-3">
          <mxGeometry x="94.75" y="722.5" width="120.5" height="45" as="geometry" />
        </mxCell>
        <mxCell id="tFtRwitO-CaLWMYE0mu--30" style="edgeStyle=orthogonalEdgeStyle;rounded=0;orthogonalLoop=1;jettySize=auto;html=1;entryX=0.5;entryY=0;entryDx=0;entryDy=0;" edge="1" parent="nWeCvu2n60bJMO3mKfKt-3" source="tFtRwitO-CaLWMYE0mu--28" target="tFtRwitO-CaLWMYE0mu--22">
          <mxGeometry relative="1" as="geometry">
            <Array as="points">
              <mxPoint x="280" y="908" />
              <mxPoint x="280" y="702" />
              <mxPoint x="155" y="702" />
            </Array>
          </mxGeometry>
        </mxCell>
        <mxCell id="tFtRwitO-CaLWMYE0mu--31" value="Tidak" style="edgeLabel;html=1;align=center;verticalAlign=middle;resizable=0;points=[];" vertex="1" connectable="0" parent="tFtRwitO-CaLWMYE0mu--30">
          <mxGeometry x="-0.7017" y="-1" relative="1" as="geometry">
            <mxPoint x="-1" as="offset" />
          </mxGeometry>
        </mxCell>
        <mxCell id="tFtRwitO-CaLWMYE0mu--33" style="edgeStyle=orthogonalEdgeStyle;rounded=0;orthogonalLoop=1;jettySize=auto;html=1;entryX=0.5;entryY=0;entryDx=0;entryDy=0;" edge="1" parent="nWeCvu2n60bJMO3mKfKt-3" source="tFtRwitO-CaLWMYE0mu--28" target="tFtRwitO-CaLWMYE0mu--32">
          <mxGeometry relative="1" as="geometry" />
        </mxCell>
        <mxCell id="tFtRwitO-CaLWMYE0mu--28" value="&lt;font style=&quot;font-size: 10px;&quot;&gt;Validasi :&amp;nbsp;&lt;/font&gt;&lt;div&gt;Konfirmasi pemesanan&lt;/div&gt;" style="rhombus;whiteSpace=wrap;html=1;" vertex="1" parent="nWeCvu2n60bJMO3mKfKt-3">
          <mxGeometry x="59.5" y="860" width="110" height="95" as="geometry" />
        </mxCell>
        <mxCell id="tFtRwitO-CaLWMYE0mu--32" value="&lt;font style=&quot;font-size: 11px;&quot;&gt;Menampilkan pesan berhasil dibuat&lt;/font&gt;" style="rounded=0;whiteSpace=wrap;html=1;" vertex="1" parent="nWeCvu2n60bJMO3mKfKt-3">
          <mxGeometry x="62" y="990" width="105" height="27.5" as="geometry" />
        </mxCell>
        <mxCell id="q5prHMVFRJjdFCk8cDmZ-20" style="edgeStyle=orthogonalEdgeStyle;rounded=0;orthogonalLoop=1;jettySize=auto;html=1;" parent="1" source="q5prHMVFRJjdFCk8cDmZ-16" target="q5prHMVFRJjdFCk8cDmZ-19" edge="1">
          <mxGeometry relative="1" as="geometry" />
        </mxCell>
        <mxCell id="tFtRwitO-CaLWMYE0mu--23" style="edgeStyle=orthogonalEdgeStyle;rounded=0;orthogonalLoop=1;jettySize=auto;html=1;" edge="1" parent="1" source="tFtRwitO-CaLWMYE0mu--20" target="tFtRwitO-CaLWMYE0mu--22">
          <mxGeometry relative="1" as="geometry" />
        </mxCell>
        <mxCell id="tFtRwitO-CaLWMYE0mu--26" style="edgeStyle=orthogonalEdgeStyle;rounded=0;orthogonalLoop=1;jettySize=auto;html=1;entryX=1;entryY=0.5;entryDx=0;entryDy=0;" edge="1" parent="1" source="tFtRwitO-CaLWMYE0mu--22" target="tFtRwitO-CaLWMYE0mu--24">
          <mxGeometry relative="1" as="geometry">
            <Array as="points">
              <mxPoint x="760" y="1265" />
              <mxPoint x="760" y="1355" />
            </Array>
          </mxGeometry>
        </mxCell>
        <mxCell id="tFtRwitO-CaLWMYE0mu--29" style="edgeStyle=orthogonalEdgeStyle;rounded=0;orthogonalLoop=1;jettySize=auto;html=1;entryX=0;entryY=0.5;entryDx=0;entryDy=0;" edge="1" parent="1" source="tFtRwitO-CaLWMYE0mu--24" target="tFtRwitO-CaLWMYE0mu--28">
          <mxGeometry relative="1" as="geometry">
            <Array as="points">
              <mxPoint x="410" y="1428" />
            </Array>
          </mxGeometry>
        </mxCell>
        <mxCell id="tFtRwitO-CaLWMYE0mu--34" style="edgeStyle=orthogonalEdgeStyle;rounded=0;orthogonalLoop=1;jettySize=auto;html=1;" edge="1" parent="1" source="tFtRwitO-CaLWMYE0mu--32" target="nWeCvu2n60bJMO3mKfKt-164">
          <mxGeometry relative="1" as="geometry" />
        </mxCell>
      </root>
    </mxGraphModel>
  </diagram>
</mxfile>
